<?xml version="1.0" encoding="utf-8"?>
<!-- Generator: Adobe Illustrator 19.2.1, SVG Export Plug-In . SVG Version: 6.00 Build 0)  -->
<svg version="1.0" id="Capa_1" xmlns="http://www.w3.org/2000/svg" xmlns:xlink="http://www.w3.org/1999/xlink" x="0px" y="0px"
	 viewBox="0 0 119.1 119.1" style="enable-background:new 0 0 119.1 119.1;" xml:space="preserve">
<style type="text/css">
	.st0{fill:#EC624C;}
</style>
<title>wiris_icon_bg</title>
<path class="st0" d="M102,68v0.7h0c-0.4,14.1-12.1,25.2-26.2,24.8c-6-0.2-11.8-2.5-16.3-6.5c-10.5,9.4-26.6,8.5-36-2
	c-4-4.5-6.3-10.3-6.5-16.3h0V34c0-4.7,3.8-8.5,8.5-8.5S34,29.3,34,34c0,0,0,0,0,0v34c0,4.7,3.8,8.5,8.5,8.5c4.7,0,8.5-3.8,8.5-8.5
	V34c0-4.7,3.8-8.5,8.5-8.5S68,29.3,68,34l0,0v34c0,4.7,3.8,8.5,8.5,8.5c4.7,0,8.5-3.8,8.5-8.5v-8.5c0-4.7,3.8-8.5,8.5-8.5
	s8.5,3.8,8.5,8.5l0,0V68 M102,34c0,4.7-3.8,8.5-8.5,8.5S85,38.7,85,34c0-4.7,3.8-8.5,8.5-8.5c0,0,0,0,0,0C98.2,25.5,102,29.3,102,34
	C102,34,102,34,102,34 M119.1,110.6V8.5c0,0,0-8.5-8.5-8.5H8.5C8.5,0,0,0,0,8.5v102c0,0,0,8.5,8.5,8.5h102
	C110.6,119.1,119.1,119.1,119.1,110.6"/>
</svg>
